# xmcd CD database file generated by OrangeCD 6.4
#
# Track frame offsets:
#	150
#	14710
#	33965
#
# Disc length: 542 seconds
#
# Revision: 0
# Processed by: cddbd v1.5.2PL0 Copyright (c) Steve Scherf et al.
# Submitted via: OrangeCD 6.4
#
DISCID=1d021c03
DTITLE=Tehosekoitin - C'mon Baby Yeah [Single]
DYEAR=1997
DGENRE=Rock
TTITLE0=C'mon Baby Yeah
TTITLE1=Mä haluun rauhottua
TTITLE2=Musta Maija
EXTD=
EXTT0=
EXTT1=
EXTT2=
PLAYORDER=
